<?xml version="1.0" encoding="UTF-8"?> <svg xmlns="http://www.w3.org/2000/svg" width="190.719" height="42.5" viewBox="0 0 190.719 42.5"><path d="M7.163,52.949H.322A.323.323,0,0,0,0,53.271V79.679A.323.323,0,0,0,.322,80H7.163a.323.323,0,0,0,.322-.322V53.271a.323.323,0,0,0-.322-.322" transform="translate(0 -42.449)" fill="#0a2f4e"></path><path d="M63.392,50.875a9.638,9.638,0,0,0-7.481,3.532v-2.8a.324.324,0,0,0-.326-.322H48.748a.324.324,0,0,0-.325.322V78.016a.321.321,0,0,0,.325.322h6.837a.321.321,0,0,0,.326-.322V67.437c0-5.889,2.207-10,5.37-10,2.154,0,3.156,1.185,3.156,3.725V78.016a.321.321,0,0,0,.322.322H71.6a.32.32,0,0,0,.322-.322V59.25c0-5.241-3.187-8.376-8.529-8.376" transform="translate(-38.82 -40.786)" fill="#0a2f4e"></path><path d="M194.3,30.915a.34.34,0,0,0-.186-.211.325.325,0,0,0-.275.014l-.247.133a4.641,4.641,0,0,1-2.211.554c-2.079,0-2.852-1-2.852-3.671V11.6h4.647a.325.325,0,0,0,.322-.321V4.44a.325.325,0,0,0-.322-.322h-4.647V.322A.32.32,0,0,0,188.209,0h-6.844a.323.323,0,0,0-.322.322V27.838c0,6.526,3.581,10.126,10.078,10.126a10.357,10.357,0,0,0,4.451-.98l.179-.079a.332.332,0,0,0,.179-.387Z" transform="translate(-145.14)" fill="#0a2f4e"></path><path d="M855.749,50.875a9.651,9.651,0,0,0-7.482,3.532V51.612a.323.323,0,0,0-.318-.326h-6.841a.324.324,0,0,0-.322.326v26.4a.321.321,0,0,0,.322.322h6.841a.319.319,0,0,0,.318-.322V67.437c0-5.889,2.208-10,5.37-10,2.154,0,3.156,1.185,3.156,3.721V78.016a.324.324,0,0,0,.326.322h6.841a.323.323,0,0,0,.322-.322V59.25c0-5.245-3.188-8.376-8.533-8.376" transform="translate(-674.049 -40.786)" fill="#0a2f4e"></path><path d="M282.794,10.089a9.627,9.627,0,0,0-7.689,3.446V.322A.321.321,0,0,0,274.784,0h-6.84a.321.321,0,0,0-.322.322V37.23a.321.321,0,0,0,.322.322h6.84a.321.321,0,0,0,.322-.322V26.035c0-4.672,1.71-9.388,5.524-9.388,2.261,0,3.313,1.3,3.313,4.086v16.5a.321.321,0,0,0,.322.322H291.1a.326.326,0,0,0,.325-.322V18.465c0-5.323-3.148-8.375-8.633-8.375" transform="translate(-214.549)" fill="#0a2f4e"></path><path d="M550.878,73.458H539.8L550.434,56.22a.321.321,0,0,0,.047-.168V53.29a.317.317,0,0,0-.318-.322h-18.79a.323.323,0,0,0-.322.322V59.2a.326.326,0,0,0,.322.326h9.259L530.306,76l-.029.057a.3.3,0,0,0-.05.172v3.464a.321.321,0,0,0,.322.322h20.329a.321.321,0,0,0,.322-.322V73.78a.321.321,0,0,0-.322-.322" transform="translate(-425.077 -42.464)" fill="#0a2f4e"></path><path d="M412.077,57.433c2.547,0,4.1,1.224,4.855,3.843h-9.778a5.011,5.011,0,0,1,4.923-3.843m0-6.558a12.161,12.161,0,0,0-10,4.587,16.043,16.043,0,0,0,0,18.7,12.154,12.154,0,0,0,10,4.591c5.32,0,9.23-2.208,11.628-6.562a.342.342,0,0,0,.029-.265.357.357,0,0,0-.186-.19c-1.2-.494-4.15-1.714-5.645-2.3a.327.327,0,0,0-.379.1,6.171,6.171,0,0,1-5.088,2.662,5.35,5.35,0,0,1-5.517-4.766h17.488a.326.326,0,0,0,.322-.326V64.245a15,15,0,0,0-2.877-8.812c-2.047-2.9-5.61-4.558-9.775-4.558" transform="translate(-319.929 -40.786)" fill="#0a2f4e"></path><path d="M666.311,40.457A11.767,11.767,0,1,1,654.54,28.693a11.782,11.782,0,0,1,11.771,11.764M654.783,21.323c-.043,0-.086,0-.133,0s-.075,0-.111,0a19.136,19.136,0,0,0,0,38.271c.043,0,.089,0,.136,0,.029,0,.072,0,.108,0a19.136,19.136,0,0,0,0-38.271" transform="translate(-509.398 -17.094)" fill="#0a2f4e"></path><path d="M689.592,64.435a7.88,7.88,0,0,1,.53,11.091,7.826,7.826,0,1,1-.53-11.091m-17.023,5.817a11.767,11.767,0,1,0,11.764-11.764,11.775,11.775,0,0,0-11.764,11.764" transform="translate(-539.191 -46.889)" fill="#fff"></path><path d="M694.511,80.818a7.829,7.829,0,1,0,11.041-.55,7.866,7.866,0,0,0-11.041.55" transform="translate(-555.154 -62.722)" fill="#f6921e"></path><path d="M928.673.7a2.938,2.938,0,1,0,2.941,2.934A2.938,2.938,0,0,0,928.673.7m0,6.572a3.637,3.637,0,1,1,3.638-3.638,3.637,3.637,0,0,1-3.638,3.638" transform="translate(-741.592)" fill="#0a2f4e"></path><path d="M937.946,10.8c0-.329-.233-.5-.6-.5h-.758v1h.773c.369,0,.587-.2.587-.49Zm-.018,2.279-.744-1.113h-.6V13.08h-.763V9.616h1.582c.82,0,1.31.433,1.31,1.141v.007a1.074,1.074,0,0,1-.744,1.074l.848,1.242Z" transform="translate(-750.239 -7.709)" fill="#0a2f4e"></path></svg> 