<?xml version="1.0" encoding="UTF-8"?>
<svg width="120px" height="24px" viewBox="0 0 120 24" version="1.1" xmlns="http://www.w3.org/2000/svg" xmlns:xlink="http://www.w3.org/1999/xlink">
    <!-- Generator: Sketch 55.1 (78136) - https://sketchapp.com -->
    <title>Logo Libera@2x</title>
    <desc>Created with Sketch.</desc>
    <g id="Symbols" stroke="none" stroke-width="1" fill="none" fill-rule="evenodd">
        <g id="Header-/-standard" transform="translate(-30.000000, -24.000000)">
            <g id="Logo-Libera-/-black" transform="translate(30.000000, 24.000000)">
                <g id="Logo-LIbera">
                    <polygon id="Fill-1" fill="#333333" points="0 0.0004 0 14.6554 13.586 14.6554 13.586 11.8404 3.562 11.8404 3.562 0.0004"></polygon>
                    <polygon id="Fill-2" fill="#333333" points="15.721 14.6555 19.283 14.6555 19.283 0.0005 15.721 0.0005"></polygon>
                    <polygon id="Fill-6" fill="#333333" points="57.8908 14.6826 41.4328 14.6826 41.4328 0.0246 57.3238 0.0246 57.3238 2.8386 44.9948 2.8386 44.9948 5.8356 53.5598 5.8356 53.5598 8.6486 44.9948 8.6486 44.9948 11.8676 57.8908 11.8676"></polygon>
                    <path d="M71.5802,6.6592 C72.3342,6.6592 72.9212,6.4852 73.3402,6.1342 C73.7582,5.7832 73.9682,5.3032 73.9682,4.6952 C73.9682,4.1272 73.7512,3.6742 73.3182,3.3302 C72.8892,2.9862 72.3012,2.8112 71.5592,2.8112 L63.5222,2.8112 L63.5222,6.6592 L71.5802,6.6592 Z M77.3712,14.6552 L73.3502,14.6552 L70.2582,9.4732 L63.5222,9.4732 L63.5222,14.6552 L59.9592,14.6552 L59.9592,0.0002 L71.9652,0.0002 C73.6222,0.0002 74.9592,0.4422 75.9712,1.3262 C76.9852,2.2092 77.4892,3.3662 77.4892,4.7962 C77.4892,7.1312 76.3772,8.6012 74.1482,9.2112 L77.3712,14.6552 Z" id="Fill-8" fill="#333333"></path>
                    <path d="M34.0099,11.8408 C35.4799,11.8408 36.2149,11.3168 36.2149,10.2628 C36.2149,9.7358 36.0249,9.3158 35.6379,8.9958 C35.2539,8.6808 34.7329,8.5228 34.0709,8.5228 L25.0799,8.5228 L25.0799,11.8408 L34.0099,11.8408 Z M33.9909,5.7088 C34.3969,5.7088 34.7389,5.5668 35.0249,5.2828 C35.3049,4.9998 35.4469,4.6488 35.4469,4.2318 C35.4469,3.8128 35.2999,3.4708 35.0019,3.2078 C34.7049,2.9448 34.3239,2.8108 33.8499,2.8108 L25.0799,2.8108 L25.0799,5.7088 L33.9909,5.7088 Z M37.5719,7.0438 C39.0829,7.8818 39.8399,9.0148 39.8399,10.4448 C39.8399,11.6868 39.3479,12.6928 38.3619,13.4608 C37.3359,14.2578 35.9809,14.6548 34.2939,14.6548 L21.5179,14.6548 L21.5179,-0.0002 L33.8879,-0.0002 C35.6289,-0.0002 37.0259,0.5788 38.0769,1.7408 C38.7389,2.4688 39.0709,3.2978 39.0709,4.2318 C39.0709,5.4038 38.5709,6.3438 37.5719,7.0438 L37.5719,7.0438 Z" id="Fill-3" fill="#333333"></path>
                    <path d="M90.8458,8.6851 L87.6288,2.6611 L84.4278,8.6851 L90.8458,8.6851 Z M97.6358,14.6551 L94.0368,14.6551 L92.3638,11.4981 L82.9528,11.4981 L81.2758,14.6551 L77.6748,14.6551 L85.4688,0.0001 L89.8638,0.0001 L97.6358,14.6551 Z" id="Fill-11" fill="#333333"></path>
                    <path d="M118.6579,12.9487 C119.0129,12.5027 119.5509,11.8257 119.7829,11.4547 C120.1249,10.9087 119.9879,10.3707 119.8749,10.1617 L119.8609,10.1357 C119.7219,9.8837 119.6959,9.8357 119.6659,9.8357 C119.6309,9.8357 119.6269,9.8717 119.6189,9.9397 C119.6169,9.9607 119.6079,9.9897 119.6059,10.0187 C119.5179,10.5087 119.0769,10.8097 118.6429,11.1017 C118.5609,11.1537 118.4809,11.2107 118.4029,11.2647 C117.7909,11.7107 113.9079,13.4777 113.5689,13.6307 L113.5569,13.6317 C113.5109,13.6537 113.4239,13.6947 113.4239,13.7847 C113.4239,13.9287 114.0179,14.3747 114.6779,14.8467 C115.1799,15.2027 118.7249,17.1827 119.2269,17.4517 C119.3849,17.5317 119.4289,17.5427 119.4459,17.5427 C119.4599,17.5427 119.4669,17.5317 119.4669,17.5317 C119.4829,17.5037 119.4499,17.4757 119.3219,17.3607 C119.2709,17.3097 119.2159,17.2527 119.1719,17.2127 C118.2509,16.1887 117.9979,15.3587 117.9279,14.9557 C117.8369,14.3977 118.1369,13.6317 118.3199,13.3817 C118.3729,13.3037 118.4979,13.1497 118.6579,12.9487" id="Fill-14" fill="#C8102E"></path>
                    <path d="M110.8283,11.7178 L110.7963,11.6938 C110.4673,11.5008 109.7053,11.0388 108.3263,10.6698 C107.6563,10.4858 106.9993,10.3998 106.3283,10.3998 C105.4743,10.4038 104.6073,10.5458 103.6793,10.8488 C102.1973,11.3398 100.8513,12.3008 100.5983,12.5138 C100.5803,12.5298 100.5543,12.5548 100.5193,12.5798 C100.2153,12.8268 99.4843,13.4158 99.6153,13.7878 C99.8013,14.2928 100.9293,15.1458 101.4833,15.4618 L101.5553,15.5028 C102.1903,15.8628 104.1263,16.9618 106.2873,16.9598027 C108.4413,16.9598027 110.1853,15.9778 110.7583,15.6558 C110.7823,15.6398 110.8093,15.6268 110.8283,15.6158 C111.1613,15.4298 112.9843,14.2838 112.982302,13.6728 C112.9793,13.0578 111.3333,12.0188 110.8283,11.7178" id="Fill-16" fill="#C8102E"></path>
                    <path d="M5.5265,21.5791 C5.5265,21.0391 5.2115,20.7941 4.5465,20.7941 L0.9805,20.7941 L0.9805,22.3091 L4.4025,22.3091 C5.1665,22.3091 5.5265,22.0941 5.5265,21.5791 M5.3465,19.2441 C5.3465,18.8141 5.0255,18.5281 4.5095,18.5281 L0.9805,18.5281 L0.9805,19.9771 L4.4725,19.9771 C4.9725,19.9771 5.3465,19.6501 5.3465,19.2441 M6.4455,21.7071 C6.4455,22.6311 5.7505,23.1261 4.3985,23.1261 L0.0865,23.1261 L0.0865,17.7131 L4.4585,17.7131 C5.5705,17.7131 6.2215,18.3041 6.2215,19.1941 C6.2215,19.7021 6.0045,20.0611 5.5175,20.3381 C6.1305,20.5451 6.4455,21.0111 6.4455,21.7071" id="Fill-18" fill="#C8102E"></path>
                    <path d="M13.7589,19.4185 C13.7589,18.8215 13.3939,18.5275 12.6369,18.5275 L9.4839,18.5275 L9.4839,20.2485 L12.7189,20.2485 C13.3939,20.2485 13.7589,19.9485 13.7589,19.4185 L13.7589,19.4185 Z M13.6839,23.1265 L12.2179,21.0615 L9.4839,21.0615 L9.4839,23.1265 L8.5879,23.1265 L8.5879,17.7135 L12.8559,17.7135 C13.9899,17.7135 14.6789,18.3735 14.6789,19.4185 C14.6789,20.3755 14.0819,20.8835 13.2739,21.0175 L14.7249,23.1265 L13.6839,23.1265 Z" id="Fill-20" fill="#C8102E"></path>
                    <path d="M19.2423,18.4834 L17.8593,21.1014 L20.6193,21.1014 L19.2423,18.4834 Z M21.6873,23.1264 L21.0543,21.9134 L17.4183,21.9134 L16.7913,23.1264 L15.8103,23.1264 L18.6753,17.7134 L19.8013,17.7134 L22.6623,23.1264 L21.6873,23.1264 Z" id="Fill-22" fill="#C8102E"></path>
                    <polygon id="Fill-24" fill="#C8102E" points="29.2609 23.1265 25.1199 18.6865 25.1199 23.1265 24.2229 23.1265 24.2229 17.7135 25.3339 17.7135 29.4689 22.1535 29.4689 17.7135 30.3649 17.7135 30.3649 23.1265"></polygon>
                    <path d="M38.2951,20.4561 C38.2951,19.3041 37.4841,18.5281 36.2731,18.5281 L33.6751,18.5281 L33.6751,22.3091 L36.4471,22.3091 C37.5231,22.3091 38.2951,21.5401 38.2951,20.4561 M39.2631,20.4801 C39.2631,21.2421 38.9651,21.9071 38.3911,22.4071 C37.8651,22.8711 37.1561,23.1261 36.3711,23.1261 L32.7751,23.1261 L32.7751,17.7131 L36.2011,17.7131 C38.0911,17.7131 39.2631,18.8041 39.2631,20.4801" id="Fill-26" fill="#C8102E"></path>
                    <path d="M49.6222,21.5791 C49.6222,21.0391 49.3072,20.7941 48.6432,20.7941 L45.0772,20.7941 L45.0772,22.3091 L48.5002,22.3091 C49.2622,22.3091 49.6222,22.0941 49.6222,21.5791 M49.4432,19.2441 C49.4432,18.8141 49.1222,18.5281 48.6032,18.5281 L45.0772,18.5281 L45.0772,19.9771 L48.5662,19.9771 C49.0672,19.9771 49.4432,19.6501 49.4432,19.2441 M50.5422,21.7071 C50.5422,22.6311 49.8482,23.1261 48.4922,23.1261 L44.1802,23.1261 L44.1802,17.7131 L48.5532,17.7131 C49.6662,17.7131 50.3162,18.3041 50.3162,19.1941 C50.3162,19.7021 50.1002,20.0611 49.6132,20.3381 C50.2272,20.5451 50.5422,21.0111 50.5422,21.7071" id="Fill-28" fill="#C8102E"></path>
                    <path d="M55.7189,23.2915 C53.8219,23.2915 52.6469,22.4745 52.6469,21.3765 L52.6469,17.7135 L53.5419,17.7135 L53.5419,21.1595 C53.5419,21.9985 54.2869,22.4655 55.7189,22.4655 C57.1359,22.4655 57.8759,21.9985 57.8759,21.1595 L57.8759,17.7135 L58.7739,17.7135 L58.7739,21.3765 C58.7739,22.4835 57.6079,23.2915 55.7189,23.2915" id="Fill-30" fill="#C8102E"></path>
                    <polygon id="Fill-32" fill="#C8102E" points="61.147 23.1265 62.044 23.1265 62.044 17.7135 61.147 17.7135"></polygon>
                    <polygon id="Fill-34" fill="#C8102E" points="64.3869 23.1265 64.3869 17.7135 65.2829 17.7135 65.2829 22.3095 69.4649 22.3095 69.4649 23.1265"></polygon>
                    <path d="M76.5236,20.4561 C76.5236,19.3041 75.7146,18.5281 74.5036,18.5281 L71.9046,18.5281 L71.9046,22.3091 L74.6756,22.3091 C75.7526,22.3091 76.5236,21.5401 76.5236,20.4561 M77.4926,20.4801 C77.4926,21.2421 77.1956,21.9071 76.6206,22.4071 C76.0966,22.8711 75.3846,23.1261 74.5996,23.1261 L71.0056,23.1261 L71.0056,17.7131 L74.4316,17.7131 C76.3206,17.7131 77.4926,18.8041 77.4926,20.4801" id="Fill-35" fill="#C8102E"></path>
                    <polygon id="Fill-36" fill="#C8102E" points="79.42 23.1265 80.317 23.1265 80.317 17.7135 79.42 17.7135"></polygon>
                    <polygon id="Fill-37" fill="#C8102E" points="87.6134 23.1265 83.4694 18.6865 83.4694 23.1265 82.5734 23.1265 82.5734 17.7135 83.6874 17.7135 87.8214 22.1535 87.8214 17.7135 88.7174 17.7135 88.7174 23.1265"></polygon>
                    <path d="M94.3117,23.2803 C93.3707,23.2803 92.5167,23.0043 91.9277,22.5573 C91.2107,22.0113 90.8457,21.2943 90.8457,20.4133 C90.8457,19.5443 91.2107,18.8273 91.9417,18.2743 C92.5547,17.8043 93.4107,17.5423 94.3867,17.5423 C95.5967,17.5423 96.5307,17.9533 97.3187,18.8503 L96.4807,19.2693 C95.9357,18.6863 95.2397,18.3663 94.3117,18.3663 C93.6407,18.3663 93.0177,18.5573 92.5847,18.8743 C92.0447,19.2693 91.7797,19.7843 91.7797,20.4133 C91.7797,21.6143 92.7807,22.4603 94.3117,22.4603 C95.4857,22.4603 96.2987,21.9583 96.6467,21.0613 L94.1277,21.0613 L94.1277,20.2483 L97.7637,20.2483 L97.7637,20.3303 C97.7637,22.0863 96.4057,23.2803 94.3117,23.2803" id="Fill-38" fill="#C8102E"></path>
                </g>
            </g>
        </g>
    </g>
</svg>